<svg xmlns="http://www.w3.org/2000/svg" viewBox="0 0 18 18"><defs><style>.cls-1{fill:#eb1974;}.cls-2{fill:#f6d6e4;}</style></defs><g id="Calque_2" data-name="Calque 2"><g id="Calque_1-2" data-name="Calque 1"><path class="cls-1" d="M0,18V1.82A1.83,1.83,0,0,1,1.82,0H16.18A1.83,1.83,0,0,1,18,1.82V13.18A1.83,1.83,0,0,1,16.18,15H3Z"/><path class="cls-2" d="M5.65,8.72a1,1,0,0,0,0-2,1,1,0,0,0,0,2Z"/><path class="cls-2" d="M9.15,8.72a1,1,0,0,0,0-2,1,1,0,0,0,0,2Z"/><path class="cls-2" d="M12.65,8.72a1,1,0,0,0,0-2,1,1,0,0,0,0,2Z"/></g></g></svg>